<svg width="50" height="50" viewBox="0 0 50 50" fill="none" xmlns="http://www.w3.org/2000/svg">
<path d="M37.2969 11.0175C37.8362 11.0175 38.2734 10.5803 38.2734 10.041C38.2734 9.50161 37.8362 9.06439 37.2969 9.06439C36.7575 9.06439 36.3203 9.50161 36.3203 10.041C36.3203 10.5803 36.7575 11.0175 37.2969 11.0175Z" fill="white"/>
<path d="M8.01074 40.3936C8.55008 40.3936 8.9873 39.9564 8.9873 39.4171C8.9873 38.8777 8.55008 38.4405 8.01074 38.4405C7.4714 38.4405 7.03418 38.8777 7.03418 39.4171C7.03418 39.9564 7.4714 40.3936 8.01074 40.3936Z" fill="white"/>
<path d="M43.9157 2.71456C42.1056 0.929308 39.7082 -0.03651 37.1632 0.00118526C34.7156 0.0352672 32.4046 1.01193 30.6562 2.75118C28.9078 4.49063 27.9193 6.79639 27.8728 9.24374C27.8211 11.9665 28.9477 14.5777 30.9637 16.4075C31.7219 17.0958 32.1568 18.0826 32.1568 19.1151V20.3617C32.1568 21.1714 32.5362 21.8937 33.126 22.3617V25.2026C33.126 26.5269 34.2033 27.6044 35.5278 27.6044H39.0667C40.3911 27.6044 41.4686 26.5269 41.4686 25.2026V22.3616C42.0583 21.8935 42.4377 21.1713 42.4377 20.3616V19.115C42.4377 18.0854 42.8778 17.0938 43.6452 16.3944C45.6016 14.6114 46.7235 12.0717 46.7235 9.42646C46.7235 6.88379 45.7264 4.5001 43.9157 2.71456ZM39.5154 25.2025C39.5154 25.4499 39.3141 25.6511 39.0667 25.6511H35.5278C35.2804 25.6511 35.0791 25.4499 35.0791 25.2025V22.9144H39.5154V25.2025ZM42.3296 14.9509C41.1571 16.0194 40.4846 17.5372 40.4846 19.115V20.3616C40.4846 20.6924 40.2155 20.9614 39.8848 20.9614H38.2739V13.9011C38.2739 13.3618 37.8365 12.9245 37.2973 12.9245C36.758 12.9245 36.3207 13.3618 36.3207 13.9011V20.9614H34.7097C34.3789 20.9614 34.1099 20.6924 34.1099 20.3616V19.115C34.1099 17.5329 33.4415 16.0189 32.2764 14.9613C30.6779 13.5103 29.7845 11.4398 29.8255 9.28076C29.9011 5.29639 33.205 2.00958 37.1905 1.95411C37.2264 1.95362 37.2619 1.95333 37.298 1.95333C39.2752 1.95333 41.1349 2.71514 42.5444 4.10518C43.9799 5.5208 44.7705 7.41064 44.7705 9.42646C44.7705 11.5235 43.8809 13.5371 42.3296 14.9509Z" fill="white"/>
<path d="M49.5558 32.6074C48.7065 30.6844 46.4514 29.8105 44.5278 30.6596C44.523 30.6617 44.5181 30.664 44.5134 30.6661L38.1645 33.5939C37.6746 33.8198 37.4608 34.4 37.6866 34.8897C37.9123 35.3795 38.4926 35.5936 38.9823 35.3677L45.3233 32.4436C46.2599 32.0344 47.356 32.4607 47.7691 33.3965C48.1833 34.3345 47.7571 35.4348 46.819 35.8488L33.8267 41.5853C31.7691 42.4939 29.434 42.441 27.4199 41.4401L22.664 39.0773C20.1284 37.8179 17.189 37.751 14.5992 38.8947L14.51 38.934L10.9597 30.8927L15.8898 28.7159C18.2396 27.6783 20.8616 27.5948 23.2723 28.4801L32.8362 31.9922C33.7062 32.3117 34.17 33.2852 33.87 34.1622C33.5642 35.0557 32.5873 35.5365 31.6929 35.234L24.2972 32.7325C23.7862 32.5596 23.2321 32.8338 23.0592 33.3447C22.8864 33.8557 23.1605 34.4099 23.6714 34.5827L31.0671 37.0842C31.455 37.2154 31.8498 37.2776 32.2387 37.2776C33.766 37.2776 35.1974 36.3161 35.718 34.7943C36.3589 32.921 35.3681 30.8415 33.5095 30.1589L23.9457 26.6468C21.0571 25.586 17.916 25.6863 15.101 26.9292L10.1401 29.1195C9.49129 28.1288 8.19969 27.7216 7.08114 28.2153L0.7501 31.0108C0.397171 31.1665 0.169047 31.5155 0.167973 31.9013L0.119633 49.0206C0.118656 49.3603 0.294242 49.676 0.583304 49.8544C0.740042 49.951 0.917874 49.9999 1.09619 49.9999C1.24678 49.9999 1.39776 49.9651 1.53652 49.895L13.9218 43.6384C15.0387 43.1299 15.5976 41.883 15.2757 40.7309L15.3879 40.6814C17.4452 39.7728 19.7804 39.8259 21.7948 40.8266L26.5506 43.1892C29.0859 44.449 32.0255 44.5155 34.6154 43.3721L47.6077 37.6356C49.5312 36.7863 50.4049 34.5309 49.5558 32.6074ZM13.1069 41.8633C13.0915 41.8701 13.0762 41.8774 13.061 41.885L2.07725 47.4337L2.08916 43.1851L4.94414 41.7832C5.42831 41.5454 5.62802 40.9602 5.39033 40.4762C5.15253 39.992 4.56728 39.7922 4.0833 40.03L2.09521 41.0062L2.11895 32.5413L7.86962 30.0022C8.12909 29.888 8.4327 30.0055 8.54706 30.2646L13.117 40.6148C13.1173 40.6153 13.1175 40.6159 13.1178 40.6164L13.3693 41.1861C13.4837 41.4451 13.366 41.7489 13.1069 41.8633Z" fill="white"/>
</svg>
