<svg width="90" height="30" viewBox="0 0 90 30" fill="none" xmlns="http://www.w3.org/2000/svg">
<path fill-rule="evenodd" clip-rule="evenodd" d="M0.579943 21.6682C0.203349 20.512 8.92087e-06 19.2794 8.92087e-06 18L8.92087e-06 17.28H12.1875L12.1875 12.78H0L5.14146e-06 8.27998H11.5906C11.978 9.45117 12.1875 10.7015 12.1875 12L12.1875 21.6682H0.579943ZM8.87915 3.77998H5.14146e-06L8.92087e-06 2.38419e-07C3.50048 2.38419e-07 6.65627 1.45305 8.87915 3.77998ZM2.95528 25.8341H12.1875V30C8.49733 30 5.19022 28.3852 2.95528 25.8341Z" fill="white"/>
<path d="M25.1354 30C22.9583 30 21.1912 29.3361 19.8341 28.0082C18.4864 26.6712 17.8125 24.8947 17.8125 22.6786V22.2665C17.8125 20.783 18.1047 19.4597 18.689 18.2967C19.2827 17.1245 20.1121 16.2134 21.1771 15.5632C22.2421 14.913 23.4296 14.5879 24.7396 14.5879C26.8224 14.5879 28.4293 15.2335 29.5603 16.5247C30.7006 17.8159 31.2708 19.6429 31.2708 22.0055V23.3516H21.276C21.3797 24.5788 21.7991 25.5495 22.5342 26.2637C23.2788 26.978 24.2118 27.3352 25.3333 27.3352C26.9072 27.3352 28.189 26.717 29.1786 25.4808L31.0305 27.1978C30.4179 28.0861 29.598 28.7775 28.5707 29.272C27.5528 29.7573 26.4077 30 25.1354 30ZM24.7254 17.2665C23.783 17.2665 23.0196 17.587 22.4353 18.228C21.8604 18.869 21.4928 19.7619 21.3326 20.9066H27.878V20.6593C27.8026 19.5421 27.4963 18.6996 26.9591 18.1319C26.4219 17.5549 25.6773 17.2665 24.7254 17.2665Z" fill="white"/>
<path d="M37.1376 14.8626L37.2366 16.5797C38.3676 15.2518 39.8519 14.5879 41.6897 14.5879C44.8752 14.5879 46.4963 16.3599 46.5528 19.9038V29.7253H43.1176V20.0962C43.1176 19.1529 42.9055 18.457 42.4814 18.0082C42.0667 17.5504 41.3834 17.3214 40.4315 17.3214C39.0461 17.3214 38.0141 17.9304 37.3356 19.1484V29.7253H33.9003V14.8626H37.1376Z" fill="white"/>
<path d="M49.4226 22.1566C49.4226 20.7005 49.7195 19.391 50.3132 18.228C50.907 17.0559 51.7411 16.1584 52.8155 15.5357C53.8899 14.9038 55.1245 14.5879 56.5193 14.5879C58.5833 14.5879 60.2562 15.2335 61.5379 16.5247C62.8291 17.8159 63.5265 19.5284 63.6302 21.6621L63.6443 22.4451C63.6443 23.9103 63.3522 25.2198 62.7679 26.3736C62.193 27.5275 61.3636 28.4203 60.2798 29.0522C59.2054 29.6841 57.9613 30 56.5476 30C54.3894 30 52.66 29.304 51.3594 27.9121C50.0682 26.511 49.4226 24.6474 49.4226 22.3214V22.1566ZM52.8579 22.4451C52.8579 23.9744 53.183 25.174 53.8333 26.044C54.4836 26.9048 55.3884 27.3352 56.5476 27.3352C57.7068 27.3352 58.6069 26.8956 59.2478 26.0165C59.8981 25.1374 60.2232 23.8507 60.2232 22.1566C60.2232 20.6548 59.8886 19.4643 59.2195 18.5852C58.5598 17.706 57.6597 17.2665 56.5193 17.2665C55.3978 17.2665 54.5072 17.7015 53.8475 18.5714C53.1877 19.4322 52.8579 20.7234 52.8579 22.4451Z" fill="white"/>
<path d="M70.8542 11.25V14.8626H73.5543V17.3352H70.8542V25.6319C70.8542 26.1996 70.9673 26.6117 71.1935 26.8681C71.4291 27.1154 71.8437 27.239 72.4375 27.239C72.8333 27.239 73.2339 27.1932 73.6391 27.1016V29.6841C72.8569 29.8947 72.1029 30 71.3772 30C68.7383 30 67.4189 28.5852 67.4189 25.7555V17.3352H64.9025V14.8626H67.4189V11.25H70.8542Z" fill="white"/>
<path d="M82.9271 30C80.75 30 78.9829 29.3361 77.6257 28.0082C76.278 26.6712 75.6042 24.8947 75.6042 22.6786V22.2665C75.6042 20.783 75.8963 19.4597 76.4807 18.2967C77.0744 17.1245 77.9038 16.2134 78.9687 15.5632C80.0337 14.913 81.2212 14.5879 82.5312 14.5879C84.6141 14.5879 86.221 15.2335 87.3519 16.5247C88.4923 17.8159 89.0625 19.6429 89.0625 22.0055V23.3516H79.0677C79.1714 24.5788 79.5908 25.5495 80.3259 26.2637C81.0704 26.978 82.0035 27.3352 83.125 27.3352C84.6989 27.3352 85.9807 26.717 86.9702 25.4808L88.8222 27.1978C88.2096 28.0861 87.3896 28.7775 86.3623 29.272C85.3445 29.7573 84.1994 30 82.9271 30ZM82.5171 17.2665C81.5747 17.2665 80.8113 17.587 80.2269 18.228C79.652 18.869 79.2845 19.7619 79.1243 20.9066H85.6696V20.6593C85.5942 19.5421 85.2879 18.6996 84.7507 18.1319C84.2135 17.5549 83.469 17.2665 82.5171 17.2665Z" fill="white"/>
</svg>
