<svg width="50" height="50" viewBox="0 0 50 50" fill="none" xmlns="http://www.w3.org/2000/svg">
<path d="M44.5918 19.708C45.1311 19.708 45.5684 19.2708 45.5684 18.7314C45.5684 18.1921 45.1311 17.7549 44.5918 17.7549C44.0525 17.7549 43.6152 18.1921 43.6152 18.7314C43.6152 19.2708 44.0525 19.708 44.5918 19.708Z" fill="white"/>
<path d="M18.7666 25.3779C19.3059 25.3779 19.7432 24.9407 19.7432 24.4013C19.7432 23.862 19.3059 23.4247 18.7666 23.4247C18.2273 23.4247 17.79 23.862 17.79 24.4013C17.79 24.9407 18.2273 25.3779 18.7666 25.3779Z" fill="white"/>
<path d="M47.0907 7.65759H39.4965C39.0319 4.98581 36.6979 2.94733 33.8953 2.94733C31.0926 2.94733 28.7586 4.98581 28.2941 7.65759H20.6997C19.0954 7.65759 17.7904 8.96277 17.7904 10.567V15.485H12.3555C12.8933 14.7288 13.2109 13.8056 13.2109 12.8092C13.2109 10.2567 11.1343 8.18015 8.58195 8.18015C6.02941 8.18015 3.95294 10.2567 3.95294 12.8092C3.95294 14.1262 4.50675 15.3155 5.39259 16.1593C2.22676 17.4632 0 20.5166 0 24.0667V31.34C0 33.5511 1.71944 35.3769 3.9212 35.6109V45.0995H1.47813C0.938869 45.0995 0.501563 45.5368 0.501563 46.076C0.501563 46.6153 0.938869 47.0526 1.47813 47.0526H28.3717C28.3741 47.0526 28.3765 47.0529 28.3789 47.0529C28.3813 47.0529 28.3837 47.0526 28.3861 47.0526H40.0544C40.0568 47.0526 40.0593 47.0529 40.0616 47.0529C40.0639 47.0529 40.0664 47.0526 40.0687 47.0526H48.102C48.6413 47.0526 49.0786 46.6153 49.0786 46.076C49.0786 45.5368 48.6413 45.0995 48.102 45.0995H40.764L37.9657 36.7618H47.0906C48.6949 36.7618 50 35.4568 50 33.8525V10.567C50.0001 8.96277 48.695 7.65759 47.0907 7.65759ZM33.8953 4.90046C35.6163 4.90046 37.0691 6.07097 37.4995 7.65759H30.2911C30.7214 6.07097 32.1743 4.90046 33.8953 4.90046ZM8.58185 10.1333C10.0572 10.1333 11.2576 11.3337 11.2576 12.8092C11.2576 14.2846 10.0572 15.485 8.58185 15.485C7.10636 15.485 5.90597 14.2846 5.90597 12.8092C5.90597 11.3337 7.10636 10.1333 8.58185 10.1333ZM11.8901 20.5596V45.0995H9.85871V34.1212C9.85871 33.582 9.42141 33.1447 8.88215 33.1447C8.34289 33.1447 7.90558 33.582 7.90558 34.1212V45.0995H5.87433V24.3197C5.87433 23.7804 5.43712 23.3432 4.89776 23.3432C4.3585 23.3432 3.9212 23.7805 3.9212 24.3197V33.6383C2.80049 33.4242 1.95313 32.4752 1.95313 31.34V24.0667C1.95313 20.4117 5.03312 17.4381 8.81896 17.4381H26.7656C26.3547 18.6825 25.1807 19.583 23.8004 19.583H12.8666C12.3274 19.583 11.8901 20.0202 11.8901 20.5596ZM38.7039 45.0994H29.7366L32.5349 36.7617H35.9055L38.7039 45.0994ZM48.047 33.8525C48.047 34.3797 47.618 34.8087 47.0907 34.8087C47.0907 34.8087 31.8514 34.8087 31.8493 34.8087H20.6997C20.1725 34.8087 19.7435 34.3797 19.7435 33.8525V28.1387C19.7435 27.5994 19.3062 27.1621 18.7669 27.1621C18.2277 27.1621 17.7904 27.5994 17.7904 28.1387V33.8525C17.7904 35.4568 19.0954 36.7618 20.6997 36.7618H30.4747L27.6763 45.0995H13.8432V21.5362H23.8004C26.5986 21.5362 28.8752 19.2598 28.8752 16.4616C28.8752 15.9223 28.4378 15.485 27.8986 15.485H19.7435V10.5671C19.7435 10.0398 20.1725 9.61082 20.6997 9.61082H47.0907C47.618 9.61082 48.047 10.0398 48.047 10.5671V33.8525Z" fill="white"/>
<path d="M42.2988 21.0242C41.9174 20.6429 41.2992 20.6429 40.9178 21.0241L36.7347 25.2073L35.2091 23.6817C34.8276 23.3004 34.2095 23.3004 33.8279 23.6817L28.4359 29.0737L26.9299 27.5676C26.7467 27.3845 26.4983 27.2816 26.2393 27.2816C25.9803 27.2816 25.7319 27.3845 25.5488 27.5676L22.7474 30.3691C22.3661 30.7504 22.3661 31.3688 22.7474 31.7502C22.9382 31.9409 23.1881 32.0363 23.438 32.0363C23.6879 32.0363 23.9378 31.9409 24.1285 31.7502L26.2392 29.6394L27.7453 31.1455C28.1267 31.5267 28.7449 31.5267 29.1265 31.1455L34.5184 25.7535L36.044 27.279C36.4255 27.6603 37.0436 27.6603 37.4252 27.279L42.2988 22.4054C42.6802 22.0241 42.6802 21.4057 42.2988 21.0242Z" fill="white"/>
</svg>
