<svg width="50" height="50" viewBox="0 0 50 50" fill="none" xmlns="http://www.w3.org/2000/svg">
<path d="M47.7665 4.13779H44.6404V0.976562C44.6404 0.437207 44.2032 0 43.6639 0C43.1245 0 42.6873 0.437207 42.6873 0.976562V4.71064L38.6047 8.80439C34.4862 5.05586 29.1921 3.00186 23.5891 3.00186C17.6239 3.00186 12.0157 5.3248 7.79775 9.54277C3.57978 13.7607 1.25684 19.3689 1.25684 25.3341C1.25684 31.2992 3.57978 36.9074 7.79775 41.1254C8.45391 41.7815 9.14375 42.3917 9.86328 42.9545L4.48496 48.3328C4.10361 48.7142 4.10361 49.3325 4.48496 49.714C4.67568 49.9046 4.92559 50 5.17549 50C5.42539 50 5.67539 49.9046 5.86602 49.714L11.4766 44.1033C15.0536 46.4219 19.2254 47.6663 23.589 47.6663C27.9738 47.6663 32.1649 46.4097 35.7536 44.0693L41.3982 49.714C41.589 49.9046 41.8389 50 42.0888 50C42.3387 50 42.5887 49.9046 42.7793 49.714C43.1606 49.3326 43.1607 48.7143 42.7793 48.3328L37.3626 42.9161C38.0647 42.3638 38.7388 41.7668 39.3803 41.1254C43.5982 36.9074 45.9212 31.2992 45.9212 25.3341C45.9212 21.9367 45.1776 18.674 43.7112 15.6365C43.4768 15.1508 42.8928 14.9471 42.4072 15.1816C41.9215 15.4161 41.7179 15.9999 41.9523 16.4856C43.2898 19.2562 43.9681 22.2332 43.9681 25.3341C43.9681 36.5712 34.826 45.7133 23.5889 45.7133C12.3518 45.7133 3.20967 36.5713 3.20967 25.3341C3.20967 14.097 12.3518 4.95488 23.5889 4.95488C28.6714 4.95488 33.4758 6.80625 37.2243 10.1883L33.7967 13.6253C30.967 11.1521 27.379 9.8 23.589 9.8C15.0234 9.8 8.05488 16.7686 8.05488 25.3341C8.05488 33.8996 15.0236 40.8682 23.5892 40.8682C32.1547 40.8682 39.1232 33.8996 39.1232 25.3341C39.1232 23.9526 38.9417 22.5823 38.5835 21.261C37.955 18.9421 36.7873 16.7956 35.1854 14.9988L39.3139 10.8591C39.3151 10.8578 39.3166 10.8567 39.3179 10.8555C39.319 10.8543 39.3199 10.853 39.3211 10.852L44.0692 6.09092H47.7666C48.306 6.09092 48.7432 5.65371 48.7432 5.11436C48.7432 4.575 48.3059 4.13779 47.7665 4.13779ZM36.6984 21.772C37.0115 22.9268 37.1702 24.1252 37.1702 25.3341C37.1702 32.8227 31.0778 38.915 23.5893 38.915C16.1007 38.915 10.0083 32.8226 10.0083 25.3341C10.0083 17.8456 16.1007 11.7531 23.5893 11.7531C26.8587 11.7531 29.9566 12.9034 32.4149 15.0111L28.3832 19.0538C27.0523 18.0354 25.3906 17.4285 23.5893 17.4285C19.2302 17.4285 15.6837 20.9749 15.6837 25.3341C15.6837 29.6933 19.2301 33.2396 23.5893 33.2396C27.9484 33.2396 31.4948 29.6933 31.4948 25.3341C31.4948 23.4789 30.8509 21.7723 29.7769 20.4223L33.8034 16.3848C35.1649 17.9381 36.1593 19.7825 36.6984 21.772ZM23.0301 25.8043C23.2207 25.9943 23.4702 26.0894 23.7197 26.0894C23.97 26.0894 24.2204 25.9938 24.4112 25.8024L28.3868 21.816C29.112 22.8023 29.5416 24.0187 29.5416 25.3341C29.5416 28.6162 26.8714 31.2865 23.5892 31.2865C20.3069 31.2865 17.6367 28.6162 17.6367 25.3341C17.6367 22.052 20.3069 19.3816 23.5892 19.3816C24.8523 19.3816 26.024 19.7783 26.9886 20.4521L23.0282 24.4231C22.6474 24.8051 22.6481 25.4233 23.0301 25.8043Z" fill="white"/>
<path d="M40.9395 14.0275C41.4788 14.0275 41.916 13.5902 41.916 13.0509C41.916 12.5116 41.4788 12.0743 40.9395 12.0743C40.4001 12.0743 39.9629 12.5116 39.9629 13.0509C39.9629 13.5902 40.4001 14.0275 40.9395 14.0275Z" fill="white"/>
</svg>
