<svg width="50" height="50" viewBox="0 0 50 50" fill="none" xmlns="http://www.w3.org/2000/svg">
<path d="M48.8373 41.9723H29.2139C28.6746 41.9723 28.2373 42.4096 28.2373 42.9488C28.2373 43.8461 27.5073 44.5761 26.6101 44.5761H23.3648C22.4676 44.5761 21.7376 43.8461 21.7376 42.9488C21.7376 42.4096 21.3003 41.9723 20.761 41.9723H5.51523V16.8784C5.51523 15.7564 6.42813 14.8436 7.5501 14.8436H19.7293L19.7382 14.9291L17.7091 16.8441C17.7023 16.8506 17.6955 16.8572 17.6889 16.8638C15.9153 18.6375 14.9386 20.9957 14.9386 23.5038V27.8645C14.9386 28.2503 15.1658 28.6 15.5185 28.7568C15.6458 28.8135 15.781 28.841 15.915 28.841C16.1522 28.841 16.3864 28.7546 16.5694 28.5896L20.8428 24.7339C20.9658 24.9443 21.1649 25.1064 21.4083 25.1783C22.5559 25.5173 23.7444 25.6912 24.941 25.6953C24.9554 25.6953 24.9698 25.6954 24.9843 25.6954C26.1951 25.6954 27.398 25.5215 28.5599 25.1783C28.8102 25.1043 29.0132 24.9341 29.1352 24.7142L33.431 28.59C33.6141 28.7551 33.8481 28.8415 34.0854 28.8415C34.2194 28.8415 34.3546 28.814 34.4819 28.7573C34.8345 28.6006 35.0618 28.2508 35.0618 27.8649V23.5043C35.0618 20.9961 34.0851 18.638 32.3115 16.8643L30.4349 14.9876L30.453 14.8434H42.4503C43.5723 14.8434 44.4852 15.7562 44.4852 16.8782V34.7829C44.4852 35.3222 44.9225 35.7595 45.4617 35.7595C46.001 35.7595 46.4383 35.3222 46.4383 34.7829V16.8784C46.4383 14.6794 44.6493 12.8904 42.4503 12.8904H30.6788C31.021 8.44717 29.5275 4.05664 26.5174 0.736426L26.3457 0.547266C26.0301 0.199023 25.5806 0 25.1109 0C25.1068 0 25.1026 0 25.0985 0C24.6244 0.00351562 24.1729 0.209766 23.8597 0.565723L23.5361 0.933301C20.6514 4.21143 19.2058 8.54639 19.5336 12.8904H7.5502C5.35117 12.8904 3.56221 14.6794 3.56221 16.8784V41.9723H1.16309C0.623828 41.9723 0.186523 42.4096 0.186523 42.9488V44.4713C0.186523 47.5198 2.6668 50 5.71514 50H44.285C47.3335 50 49.8137 47.5199 49.8137 44.4714V42.9488C49.8139 42.4095 49.3766 41.9723 48.8373 41.9723ZM29.659 21.1383L30.1254 17.4406L30.9304 18.2455C32.3351 19.6503 33.1087 21.518 33.1087 23.5045V25.6687L29.4984 22.4114L29.659 21.1383ZM25.0023 2.22363L25.1142 2.09668C27.8889 5.18506 29.1817 9.31396 28.6619 13.4354L28.4374 15.2155C28.4373 15.2163 28.4371 15.217 28.437 15.2177L27.4969 22.6727C27.4969 22.6728 27.4969 22.6728 27.4969 22.6729L27.3969 23.4659C26.6062 23.6495 25.7976 23.7423 24.9844 23.7423C24.9722 23.7423 24.96 23.7423 24.9478 23.7422C24.1521 23.7395 23.3605 23.6479 22.5867 23.4694L21.8173 16.043L21.7308 15.2076C21.7308 15.2075 21.7308 15.2074 21.7307 15.2072L21.5161 13.1367C21.1066 9.18428 22.3773 5.20654 25.0023 2.22363ZM20.5121 22.4016L16.8917 25.6682V23.5039C16.8917 21.522 17.6618 19.6583 19.0603 18.2547L19.9915 17.3757L20.5121 22.4016ZM44.2852 48.0469H5.71514C3.74355 48.0469 2.13955 46.4429 2.13955 44.4713V43.9254H19.9196C20.3457 45.4266 21.7288 46.5292 23.3647 46.5292H26.6099C28.2457 46.5292 29.6288 45.4266 30.0549 43.9254H47.8605V44.4714H47.8606C47.8607 46.4429 46.2567 48.0469 44.2852 48.0469Z" fill="white"/>
<path d="M41.4894 17.0235H36.5731C36.0339 17.0235 35.5966 17.4608 35.5966 18.0001C35.5966 18.5393 36.0339 18.9766 36.5731 18.9766H40.5128V37.8966H9.81494V18.9766H12.9124C13.4517 18.9766 13.889 18.5393 13.889 18.0001C13.889 17.4608 13.4517 17.0235 12.9124 17.0235H8.83838C8.29912 17.0235 7.86182 17.4608 7.86182 18.0001V38.8732C7.86182 39.4124 8.29912 39.8498 8.83838 39.8498H41.4893C42.0285 39.8498 42.4658 39.4124 42.4658 38.8732V18.0001C42.4659 17.4608 42.0286 17.0235 41.4894 17.0235Z" fill="white"/>
<path d="M25 11.2861C25.5393 11.2861 25.9766 10.8488 25.9766 10.3095C25.9766 9.77017 25.5393 9.33295 25 9.33295C24.4607 9.33295 24.0234 9.77017 24.0234 10.3095C24.0234 10.8488 24.4607 11.2861 25 11.2861Z" fill="white"/>
<path d="M45.4619 40.0166C46.0013 40.0166 46.4385 39.5794 46.4385 39.04C46.4385 38.5007 46.0013 38.0635 45.4619 38.0635C44.9226 38.0635 44.4854 38.5007 44.4854 39.04C44.4854 39.5794 44.9226 40.0166 45.4619 40.0166Z" fill="white"/>
<path d="M22.4609 27.1144C21.9217 27.1144 21.4844 27.5517 21.4844 28.091V32.0661C21.4844 32.6054 21.9217 33.0427 22.4609 33.0427C23.0002 33.0427 23.4375 32.6055 23.4375 32.0661V28.091C23.4375 27.5517 23.0003 27.1144 22.4609 27.1144Z" fill="white"/>
<path d="M27.4224 26.888C26.8831 26.888 26.4458 27.3253 26.4458 27.8646V33.7265C26.4458 34.2657 26.8831 34.703 27.4224 34.703C27.9616 34.703 28.3989 34.2658 28.3989 33.7265V27.8646C28.3989 27.3253 27.9616 26.888 27.4224 26.888Z" fill="white"/>
</svg>
